v 0 0 0
v 1 0 0
v 2 0 0
v 3 0 0
v 4 0 0
v 5 0 0
v 6 0 0
v 7 0 0
v 8 0 0
v 9 0 0
v 10 0 0
v 11 0 0
v 12 0 0
v 13 0 0
v 14 0 0
v 15 0 0
v 16 0 0
v 17 0 0
v 18 0 0
v 19 0 0
v 20 0 0
v 21 0 0
v 22 0 0
v 23 0 0
v 24 0 0
v 25 0 0
v 26 0 0
v 27 0 0
v 28 0 0
v 29 0 0
v 30 0 0
v 31 0 0
v 32 0 0
v 33 0 0
v 34 0 0
v 35 0 0
v 36 0 0
v 37 0 0
v 38 0 0
v 39 0 0
f 1 2
f 2 3
f 3 4
f 4 5
f 5 6
f 6 7
f 7 8
f 8 9
f 9 10
f 10 11
f 11 12
f 12 13
f 13 14
f 14 15
f 15 16
f 16 17
f 17 18
f 18 19
f 19 20
f 20 21
f 21 22
f 22 23
f 23 24
f 24 25
f 25 26
f 26 27
f 27 28
f 28 29
f 29 30
f 30 31
f 31 32
f 32 33
f 33 34
f 34 35
f 35 36
f 36 37
f 37 38
f 38 39
f 39 40
