v 0.000000 0.000000 0.000000
v 1.000000 0.000000 0.000000
v 0.500000 0.866025 0.000000
v -0.500000 0.866025 0.000000
v -1.000000 0.000000 0.000000
v -0.500000 -0.866025 0.000000
v 0.500000 -0.866025 0.000000
v 1.732051 1.000000 0.000000
v 0.000000 2.000000 0.000000
v -1.732051 1.000000 0.000000
v -1.732051 -1.000000 0.000000
v -0.000000 -2.000000 0.000000
v 1.732051 -1.000000 0.000000
v 3.000000 0.000000 0.000000
v 1.500000 2.598076 0.000000
v -1.500000 2.598076 0.000000
v -3.000000 0.000000 0.000000
v -1.500000 -2.598076 0.000000
v 1.500000 -2.598076 0.000000
v 3.464102 2.000000 0.000000
v 0.000000 4.000000 0.000000
v -3.464102 2.000000 0.000000
v -3.464102 -2.000000 0.000000
v -0.000000 -4.000000 0.000000
v 3.464102 -2.000000 0.000000
v 5.000000 0.000000 0.000000
v 2.500000 4.330127 0.000000
v -2.500000 4.330127 0.000000
v -5.000000 0.000000 0.000000
v -2.500000 -4.330127 0.000000
v 2.500000 -4.330127 0.000000
v 5.196152 3.000000 0.000000
v 0.000000 6.000000 0.000000
v -5.196152 3.000000 0.000000
v -5.196152 -3.000000 0.000000
v -0.000000 -6.000000 0.000000
v 5.196152 -3.000000 0.000000
v 7.000000 0.000000 0.000000
v 3.500000 6.062178 0.000000
v -3.500000 6.062178 0.000000
v -7.000000 0.000000 0.000000
v -3.500000 -6.062178 0.000000
v 3.500000 -6.062178 0.000000
v 6.928203 4.000000 0.000000
v 0.000000 8.000000 0.000000
v -6.928203 4.000000 0.000000
v -6.928203 -4.000000 0.000000
v -0.000000 -8.000000 0.000000
v 6.928203 -4.000000 0.000000
v 9.000000 0.000000 0.000000
v 4.500000 7.794229 0.000000
v -4.500000 7.794229 0.000000
v -9.000000 0.000000 0.000000
v -4.500000 -7.794229 0.000000
v 4.500000 -7.794229 0.000000
v 8.660254 5.000000 0.000000
v 0.000000 10.000000 0.000000
v -8.660254 5.000000 0.000000
v -8.660254 -5.000000 0.000000
v -0.000000 -10.000000 0.000000
v 8.660254 -5.000000 0.000000
f 2 3
f 3 4
f 4 5
f 5 6
f 6 7
f 7 2
f 8 9
f 9 10
f 10 11
f 11 12
f 12 13
f 13 8
f 14 15
f 15 16
f 16 17
f 17 18
f 18 19
f 19 14
f 20 21
f 21 22
f 22 23
f 23 24
f 24 25
f 25 20
f 26 27
f 27 28
f 28 29
f 29 30
f 30 31
f 31 26
f 32 33
f 33 34
f 34 35
f 35 36
f 36 37
f 37 32
f 38 39
f 39 40
f 40 41
f 41 42
f 42 43
f 43 38
f 44 45
f 45 46
f 46 47
f 47 48
f 48 49
f 49 44
f 50 51
f 51 52
f 52 53
f 53 54
f 54 55
f 55 50
f 56 57
f 57 58
f 58 59
f 59 60
f 60 61
f 61 56
f 2 1
f 3 1
f 4 1
f 5 1
f 6 1
f 7 1
f 8 2
f 8 3
f 9 3
f 9 4
f 10 4
f 10 5
f 11 5
f 11 6
f 12 6
f 12 7
f 13 7
f 13 2
f 14 8
f 14 9
f 15 9
f 15 10
f 16 10
f 16 11
f 17 11
f 17 12
f 18 12
f 18 13
f 19 13
f 19 8
f 20 14
f 20 15
f 21 15
f 21 16
f 22 16
f 22 17
f 23 17
f 23 18
f 24 18
f 24 19
f 25 19
f 25 14
f 26 20
f 26 21
f 27 21
f 27 22
f 28 22
f 28 23
f 29 23
f 29 24
f 30 24
f 30 25
f 31 25
f 31 20
f 32 26
f 32 27
f 33 27
f 33 28
f 34 28
f 34 29
f 35 29
f 35 30
f 36 30
f 36 31
f 37 31
f 37 26
f 38 32
f 38 33
f 39 33
f 39 34
f 40 34
f 40 35
f 41 35
f 41 36
f 42 36
f 42 37
f 43 37
f 43 32
f 44 38
f 44 39
f 45 39
f 45 40
f 46 40
f 46 41
f 47 41
f 47 42
f 48 42
f 48 43
f 49 43
f 49 38
f 50 44
f 50 45
f 51 45
f 51 46
f 52 46
f 52 47
f 53 47
f 53 48
f 54 48
f 54 49
f 55 49
f 55 44
f 56 50
f 56 51
f 57 51
f 57 52
f 58 52
f 58 53
f 59 53
f 59 54
f 60 54
f 60 55
f 61 55
f 61 50