v 0.000000 0.000000 0.000000
v 1.000000 0.000000 0.000000
v 2.000000 0.000000 0.000000
v 3.000000 0.000000 0.000000
v 4.000000 0.000000 0.000000
v 5.000000 0.000000 0.000000
v 6.000000 0.000000 0.000000
v 7.000000 0.000000 0.000000
v 8.000000 0.000000 0.000000
v 9.000000 0.000000 0.000000
v 10.000000 0.000000 0.000000
v 11.000000 0.000000 0.000000
v 12.000000 0.000000 0.000000
v 13.000000 0.000000 0.000000
v 14.000000 0.000000 0.000000
v 15.000000 0.000000 0.000000
v 16.000000 0.000000 0.000000
v 17.000000 0.000000 0.000000
v 18.000000 0.000000 0.000000
v 19.000000 0.000000 0.000000
v 0.000000 0.000000 1.000000
v 1.000000 0.000000 1.000000
v 2.000000 0.000000 1.000000
v 3.000000 0.000000 1.000000
v 4.000000 0.000000 1.000000
v 5.000000 0.000000 1.000000
v 6.000000 0.000000 1.000000
v 7.000000 0.000000 1.000000
v 8.000000 0.000000 1.000000
v 9.000000 0.000000 1.000000
v 10.000000 0.000000 1.000000
v 11.000000 0.000000 1.000000
v 12.000000 0.000000 1.000000
v 13.000000 0.000000 1.000000
v 14.000000 0.000000 1.000000
v 15.000000 0.000000 1.000000
v 16.000000 0.000000 1.000000
v 17.000000 0.000000 1.000000
v 18.000000 0.000000 1.000000
v 19.000000 0.000000 1.000000
v 0.000000 0.000000 2.000000
v 1.000000 0.000000 2.000000
v 2.000000 0.000000 2.000000
v 3.000000 0.000000 2.000000
v 4.000000 0.000000 2.000000
v 5.000000 0.000000 2.000000
v 6.000000 0.000000 2.000000
v 7.000000 0.000000 2.000000
v 8.000000 0.000000 2.000000
v 9.000000 0.000000 2.000000
v 10.000000 0.000000 2.000000
v 11.000000 0.000000 2.000000
v 12.000000 0.000000 2.000000
v 13.000000 0.000000 2.000000
v 14.000000 0.000000 2.000000
v 15.000000 0.000000 2.000000
v 16.000000 0.000000 2.000000
v 17.000000 0.000000 2.000000
v 18.000000 0.000000 2.000000
v 19.000000 0.000000 2.000000
v 0.000000 0.000000 3.000000
v 1.000000 0.000000 3.000000
v 2.000000 0.000000 3.000000
v 3.000000 0.000000 3.000000
v 4.000000 0.000000 3.000000
v 5.000000 0.000000 3.000000
v 6.000000 0.000000 3.000000
v 7.000000 0.000000 3.000000
v 8.000000 0.000000 3.000000
v 9.000000 0.000000 3.000000
v 10.000000 0.000000 3.000000
v 11.000000 0.000000 3.000000
v 12.000000 0.000000 3.000000
v 13.000000 0.000000 3.000000
v 14.000000 0.000000 3.000000
v 15.000000 0.000000 3.000000
v 16.000000 0.000000 3.000000
v 17.000000 0.000000 3.000000
v 18.000000 0.000000 3.000000
v 19.000000 0.000000 3.000000
v 0.000000 0.000000 4.000000
v 1.000000 0.000000 4.000000
v 2.000000 0.000000 4.000000
v 3.000000 0.000000 4.000000
v 4.000000 0.000000 4.000000
v 5.000000 0.000000 4.000000
v 6.000000 0.000000 4.000000
v 7.000000 0.000000 4.000000
v 8.000000 0.000000 4.000000
v 9.000000 0.000000 4.000000
v 10.000000 0.000000 4.000000
v 11.000000 0.000000 4.000000
v 12.000000 0.000000 4.000000
v 13.000000 0.000000 4.000000
v 14.000000 0.000000 4.000000
v 15.000000 0.000000 4.000000
v 16.000000 0.000000 4.000000
v 17.000000 0.000000 4.000000
v 18.000000 0.000000 4.000000
v 19.000000 0.000000 4.000000
v 0.000000 0.000000 5.000000
v 1.000000 0.000000 5.000000
v 2.000000 0.000000 5.000000
v 3.000000 0.000000 5.000000
v 4.000000 0.000000 5.000000
v 5.000000 0.000000 5.000000
v 6.000000 0.000000 5.000000
v 7.000000 0.000000 5.000000
v 8.000000 0.000000 5.000000
v 9.000000 0.000000 5.000000
v 10.000000 0.000000 5.000000
v 11.000000 0.000000 5.000000
v 12.000000 0.000000 5.000000
v 13.000000 0.000000 5.000000
v 14.000000 0.000000 5.000000
v 15.000000 0.000000 5.000000
v 16.000000 0.000000 5.000000
v 17.000000 0.000000 5.000000
v 18.000000 0.000000 5.000000
v 19.000000 0.000000 5.000000
f 1 2
f 2 3
f 3 4
f 4 5
f 5 6
f 6 7
f 7 8
f 8 9
f 9 10
f 10 11
f 11 12
f 12 13
f 13 14
f 14 15
f 15 16
f 16 17
f 17 18
f 18 19
f 19 20
f 21 22
f 22 23
f 23 24
f 24 25
f 25 26
f 26 27
f 27 28
f 28 29
f 29 30
f 30 31
f 31 32
f 32 33
f 33 34
f 34 35
f 35 36
f 36 37
f 37 38
f 38 39
f 39 40
f 41 42
f 42 43
f 43 44
f 44 45
f 45 46
f 46 47
f 47 48
f 48 49
f 49 50
f 50 51
f 51 52
f 52 53
f 53 54
f 54 55
f 55 56
f 56 57
f 57 58
f 58 59
f 59 60
f 61 62
f 62 63
f 63 64
f 64 65
f 65 66
f 66 67
f 67 68
f 68 69
f 69 70
f 70 71
f 71 72
f 72 73
f 73 74
f 74 75
f 75 76
f 76 77
f 77 78
f 78 79
f 79 80
f 81 82
f 82 83
f 83 84
f 84 85
f 85 86
f 86 87
f 87 88
f 88 89
f 89 90
f 90 91
f 91 92
f 92 93
f 93 94
f 94 95
f 95 96
f 96 97
f 97 98
f 98 99
f 99 100
f 101 102
f 102 103
f 103 104
f 104 105
f 105 106
f 106 107
f 107 108
f 108 109
f 109 110
f 110 111
f 111 112
f 112 113
f 113 114
f 114 115
f 115 116
f 116 117
f 117 118
f 118 119
f 119 120
f 1 21
f 2 22
f 3 23
f 4 24
f 5 25
f 6 26
f 7 27
f 8 28
f 9 29
f 10 30
f 11 31
f 12 32
f 13 33
f 14 34
f 15 35
f 16 36
f 17 37
f 18 38
f 19 39
f 20 40
f 21 41
f 22 42
f 23 43
f 24 44
f 25 45
f 26 46
f 27 47
f 28 48
f 29 49
f 30 50
f 31 51
f 32 52
f 33 53
f 34 54
f 35 55
f 36 56
f 37 57
f 38 58
f 39 59
f 40 60
f 41 61
f 42 62
f 43 63
f 44 64
f 45 65
f 46 66
f 47 67
f 48 68
f 49 69
f 50 70
f 51 71
f 52 72
f 53 73
f 54 74
f 55 75
f 56 76
f 57 77
f 58 78
f 59 79
f 60 80
f 61 81
f 62 82
f 63 83
f 64 84
f 65 85
f 66 86
f 67 87
f 68 88
f 69 89
f 70 90
f 71 91
f 72 92
f 73 93
f 74 94
f 75 95
f 76 96
f 77 97
f 78 98
f 79 99
f 80 100
f 81 101
f 82 102
f 83 103
f 84 104
f 85 105
f 86 106
f 87 107
f 88 108
f 89 109
f 90 110
f 91 111
f 92 112
f 93 113
f 94 114
f 95 115
f 96 116
f 97 117
f 98 118
f 99 119
f 100 120