v 0.000000 0.000000 0.000000
v 1.000000 0.000000 0.000000
v 2.000000 0.000000 0.000000
v 3.000000 0.000000 0.000000
v 4.000000 0.000000 0.000000
v 5.000000 0.000000 0.000000
v 6.000000 0.000000 0.000000
v 7.000000 0.000000 0.000000
v 8.000000 0.000000 0.000000
v 9.000000 0.000000 0.000000
v 10.000000 0.000000 0.000000
v 11.000000 0.000000 0.000000
v 12.000000 0.000000 0.000000
v 13.000000 0.000000 0.000000
v 14.000000 0.000000 0.000000
v 15.000000 0.000000 0.000000
v 16.000000 0.000000 0.000000
v 17.000000 0.000000 0.000000
v 18.000000 0.000000 0.000000
v 19.000000 0.000000 0.000000
v 20.000000 0.000000 0.000000
v 21.000000 0.000000 0.000000
v 22.000000 0.000000 0.000000
v 23.000000 0.000000 0.000000
v 24.000000 0.000000 0.000000
v 25.000000 0.000000 0.000000
v 26.000000 0.000000 0.000000
v 27.000000 0.000000 0.000000
v 28.000000 0.000000 0.000000
v 29.000000 0.000000 0.000000
v 30.000000 0.000000 0.000000
v 31.000000 0.000000 0.000000
v 32.000000 0.000000 0.000000
v 33.000000 0.000000 0.000000
v 34.000000 0.000000 0.000000
v 35.000000 0.000000 0.000000
v 36.000000 0.000000 0.000000
v 37.000000 0.000000 0.000000
v 38.000000 0.000000 0.000000
v 39.000000 0.000000 0.000000
v 40.000000 0.000000 0.000000
v 41.000000 0.000000 0.000000
v 42.000000 0.000000 0.000000
v 43.000000 0.000000 0.000000
v 44.000000 0.000000 0.000000
v 45.000000 0.000000 0.000000
v 46.000000 0.000000 0.000000
v 47.000000 0.000000 0.000000
v 48.000000 0.000000 0.000000
v 49.000000 0.000000 0.000000
v 0.000000 1.000000 0.000000
v 1.000000 1.000000 0.000000
v 2.000000 1.000000 0.000000
v 3.000000 1.000000 0.000000
v 4.000000 1.000000 0.000000
v 5.000000 1.000000 0.000000
v 6.000000 1.000000 0.000000
v 7.000000 1.000000 0.000000
v 8.000000 1.000000 0.000000
v 9.000000 1.000000 0.000000
v 10.000000 1.000000 0.000000
v 11.000000 1.000000 0.000000
v 12.000000 1.000000 0.000000
v 13.000000 1.000000 0.000000
v 14.000000 1.000000 0.000000
v 15.000000 1.000000 0.000000
v 16.000000 1.000000 0.000000
v 17.000000 1.000000 0.000000
v 18.000000 1.000000 0.000000
v 19.000000 1.000000 0.000000
v 20.000000 1.000000 0.000000
v 21.000000 1.000000 0.000000
v 22.000000 1.000000 0.000000
v 23.000000 1.000000 0.000000
v 24.000000 1.000000 0.000000
v 25.000000 1.000000 0.000000
v 26.000000 1.000000 0.000000
v 27.000000 1.000000 0.000000
v 28.000000 1.000000 0.000000
v 29.000000 1.000000 0.000000
v 30.000000 1.000000 0.000000
v 31.000000 1.000000 0.000000
v 32.000000 1.000000 0.000000
v 33.000000 1.000000 0.000000
v 34.000000 1.000000 0.000000
v 35.000000 1.000000 0.000000
v 36.000000 1.000000 0.000000
v 37.000000 1.000000 0.000000
v 38.000000 1.000000 0.000000
v 39.000000 1.000000 0.000000
v 40.000000 1.000000 0.000000
v 41.000000 1.000000 0.000000
v 42.000000 1.000000 0.000000
v 43.000000 1.000000 0.000000
v 44.000000 1.000000 0.000000
v 45.000000 1.000000 0.000000
v 46.000000 1.000000 0.000000
v 47.000000 1.000000 0.000000
v 48.000000 1.000000 0.000000
v 49.000000 1.000000 0.000000
v 0.000000 2.000000 0.000000
v 1.000000 2.000000 0.000000
v 2.000000 2.000000 0.000000
v 3.000000 2.000000 0.000000
v 4.000000 2.000000 0.000000
v 5.000000 2.000000 0.000000
v 6.000000 2.000000 0.000000
v 7.000000 2.000000 0.000000
v 8.000000 2.000000 0.000000
v 9.000000 2.000000 0.000000
v 10.000000 2.000000 0.000000
v 11.000000 2.000000 0.000000
v 12.000000 2.000000 0.000000
v 13.000000 2.000000 0.000000
v 14.000000 2.000000 0.000000
v 15.000000 2.000000 0.000000
v 16.000000 2.000000 0.000000
v 17.000000 2.000000 0.000000
v 18.000000 2.000000 0.000000
v 19.000000 2.000000 0.000000
v 20.000000 2.000000 0.000000
v 21.000000 2.000000 0.000000
v 22.000000 2.000000 0.000000
v 23.000000 2.000000 0.000000
v 24.000000 2.000000 0.000000
v 25.000000 2.000000 0.000000
v 26.000000 2.000000 0.000000
v 27.000000 2.000000 0.000000
v 28.000000 2.000000 0.000000
v 29.000000 2.000000 0.000000
v 30.000000 2.000000 0.000000
v 31.000000 2.000000 0.000000
v 32.000000 2.000000 0.000000
v 33.000000 2.000000 0.000000
v 34.000000 2.000000 0.000000
v 35.000000 2.000000 0.000000
v 36.000000 2.000000 0.000000
v 37.000000 2.000000 0.000000
v 38.000000 2.000000 0.000000
v 39.000000 2.000000 0.000000
v 40.000000 2.000000 0.000000
v 41.000000 2.000000 0.000000
v 42.000000 2.000000 0.000000
v 43.000000 2.000000 0.000000
v 44.000000 2.000000 0.000000
v 45.000000 2.000000 0.000000
v 46.000000 2.000000 0.000000
v 47.000000 2.000000 0.000000
v 48.000000 2.000000 0.000000
v 49.000000 2.000000 0.000000
v 0.000000 3.000000 0.000000
v 1.000000 3.000000 0.000000
v 2.000000 3.000000 0.000000
v 3.000000 3.000000 0.000000
v 4.000000 3.000000 0.000000
v 5.000000 3.000000 0.000000
v 6.000000 3.000000 0.000000
v 7.000000 3.000000 0.000000
v 8.000000 3.000000 0.000000
v 9.000000 3.000000 0.000000
v 10.000000 3.000000 0.000000
v 11.000000 3.000000 0.000000
v 12.000000 3.000000 0.000000
v 13.000000 3.000000 0.000000
v 14.000000 3.000000 0.000000
v 15.000000 3.000000 0.000000
v 16.000000 3.000000 0.000000
v 17.000000 3.000000 0.000000
v 18.000000 3.000000 0.000000
v 19.000000 3.000000 0.000000
v 20.000000 3.000000 0.000000
v 21.000000 3.000000 0.000000
v 22.000000 3.000000 0.000000
v 23.000000 3.000000 0.000000
v 24.000000 3.000000 0.000000
v 25.000000 3.000000 0.000000
v 26.000000 3.000000 0.000000
v 27.000000 3.000000 0.000000
v 28.000000 3.000000 0.000000
v 29.000000 3.000000 0.000000
v 30.000000 3.000000 0.000000
v 31.000000 3.000000 0.000000
v 32.000000 3.000000 0.000000
v 33.000000 3.000000 0.000000
v 34.000000 3.000000 0.000000
v 35.000000 3.000000 0.000000
v 36.000000 3.000000 0.000000
v 37.000000 3.000000 0.000000
v 38.000000 3.000000 0.000000
v 39.000000 3.000000 0.000000
v 40.000000 3.000000 0.000000
v 41.000000 3.000000 0.000000
v 42.000000 3.000000 0.000000
v 43.000000 3.000000 0.000000
v 44.000000 3.000000 0.000000
v 45.000000 3.000000 0.000000
v 46.000000 3.000000 0.000000
v 47.000000 3.000000 0.000000
v 48.000000 3.000000 0.000000
v 49.000000 3.000000 0.000000
v 0.000000 4.000000 0.000000
v 1.000000 4.000000 0.000000
v 2.000000 4.000000 0.000000
v 3.000000 4.000000 0.000000
v 4.000000 4.000000 0.000000
v 5.000000 4.000000 0.000000
v 6.000000 4.000000 0.000000
v 7.000000 4.000000 0.000000
v 8.000000 4.000000 0.000000
v 9.000000 4.000000 0.000000
v 10.000000 4.000000 0.000000
v 11.000000 4.000000 0.000000
v 12.000000 4.000000 0.000000
v 13.000000 4.000000 0.000000
v 14.000000 4.000000 0.000000
v 15.000000 4.000000 0.000000
v 16.000000 4.000000 0.000000
v 17.000000 4.000000 0.000000
v 18.000000 4.000000 0.000000
v 19.000000 4.000000 0.000000
v 20.000000 4.000000 0.000000
v 21.000000 4.000000 0.000000
v 22.000000 4.000000 0.000000
v 23.000000 4.000000 0.000000
v 24.000000 4.000000 0.000000
v 25.000000 4.000000 0.000000
v 26.000000 4.000000 0.000000
v 27.000000 4.000000 0.000000
v 28.000000 4.000000 0.000000
v 29.000000 4.000000 0.000000
v 30.000000 4.000000 0.000000
v 31.000000 4.000000 0.000000
v 32.000000 4.000000 0.000000
v 33.000000 4.000000 0.000000
v 34.000000 4.000000 0.000000
v 35.000000 4.000000 0.000000
v 36.000000 4.000000 0.000000
v 37.000000 4.000000 0.000000
v 38.000000 4.000000 0.000000
v 39.000000 4.000000 0.000000
v 40.000000 4.000000 0.000000
v 41.000000 4.000000 0.000000
v 42.000000 4.000000 0.000000
v 43.000000 4.000000 0.000000
v 44.000000 4.000000 0.000000
v 45.000000 4.000000 0.000000
v 46.000000 4.000000 0.000000
v 47.000000 4.000000 0.000000
v 48.000000 4.000000 0.000000
v 49.000000 4.000000 0.000000
v 0.000000 5.000000 0.000000
v 1.000000 5.000000 0.000000
v 2.000000 5.000000 0.000000
v 3.000000 5.000000 0.000000
v 4.000000 5.000000 0.000000
v 5.000000 5.000000 0.000000
v 6.000000 5.000000 0.000000
v 7.000000 5.000000 0.000000
v 8.000000 5.000000 0.000000
v 9.000000 5.000000 0.000000
v 10.000000 5.000000 0.000000
v 11.000000 5.000000 0.000000
v 12.000000 5.000000 0.000000
v 13.000000 5.000000 0.000000
v 14.000000 5.000000 0.000000
v 15.000000 5.000000 0.000000
v 16.000000 5.000000 0.000000
v 17.000000 5.000000 0.000000
v 18.000000 5.000000 0.000000
v 19.000000 5.000000 0.000000
v 20.000000 5.000000 0.000000
v 21.000000 5.000000 0.000000
v 22.000000 5.000000 0.000000
v 23.000000 5.000000 0.000000
v 24.000000 5.000000 0.000000
v 25.000000 5.000000 0.000000
v 26.000000 5.000000 0.000000
v 27.000000 5.000000 0.000000
v 28.000000 5.000000 0.000000
v 29.000000 5.000000 0.000000
v 30.000000 5.000000 0.000000
v 31.000000 5.000000 0.000000
v 32.000000 5.000000 0.000000
v 33.000000 5.000000 0.000000
v 34.000000 5.000000 0.000000
v 35.000000 5.000000 0.000000
v 36.000000 5.000000 0.000000
v 37.000000 5.000000 0.000000
v 38.000000 5.000000 0.000000
v 39.000000 5.000000 0.000000
v 40.000000 5.000000 0.000000
v 41.000000 5.000000 0.000000
v 42.000000 5.000000 0.000000
v 43.000000 5.000000 0.000000
v 44.000000 5.000000 0.000000
v 45.000000 5.000000 0.000000
v 46.000000 5.000000 0.000000
v 47.000000 5.000000 0.000000
v 48.000000 5.000000 0.000000
v 49.000000 5.000000 0.000000
v 0.000000 6.000000 0.000000
v 1.000000 6.000000 0.000000
v 2.000000 6.000000 0.000000
v 3.000000 6.000000 0.000000
v 4.000000 6.000000 0.000000
v 5.000000 6.000000 0.000000
v 6.000000 6.000000 0.000000
v 7.000000 6.000000 0.000000
v 8.000000 6.000000 0.000000
v 9.000000 6.000000 0.000000
v 10.000000 6.000000 0.000000
v 11.000000 6.000000 0.000000
v 12.000000 6.000000 0.000000
v 13.000000 6.000000 0.000000
v 14.000000 6.000000 0.000000
v 15.000000 6.000000 0.000000
v 16.000000 6.000000 0.000000
v 17.000000 6.000000 0.000000
v 18.000000 6.000000 0.000000
v 19.000000 6.000000 0.000000
v 20.000000 6.000000 0.000000
v 21.000000 6.000000 0.000000
v 22.000000 6.000000 0.000000
v 23.000000 6.000000 0.000000
v 24.000000 6.000000 0.000000
v 25.000000 6.000000 0.000000
v 26.000000 6.000000 0.000000
v 27.000000 6.000000 0.000000
v 28.000000 6.000000 0.000000
v 29.000000 6.000000 0.000000
v 30.000000 6.000000 0.000000
v 31.000000 6.000000 0.000000
v 32.000000 6.000000 0.000000
v 33.000000 6.000000 0.000000
v 34.000000 6.000000 0.000000
v 35.000000 6.000000 0.000000
v 36.000000 6.000000 0.000000
v 37.000000 6.000000 0.000000
v 38.000000 6.000000 0.000000
v 39.000000 6.000000 0.000000
v 40.000000 6.000000 0.000000
v 41.000000 6.000000 0.000000
v 42.000000 6.000000 0.000000
v 43.000000 6.000000 0.000000
v 44.000000 6.000000 0.000000
v 45.000000 6.000000 0.000000
v 46.000000 6.000000 0.000000
v 47.000000 6.000000 0.000000
v 48.000000 6.000000 0.000000
v 49.000000 6.000000 0.000000
v 0.000000 7.000000 0.000000
v 1.000000 7.000000 0.000000
v 2.000000 7.000000 0.000000
v 3.000000 7.000000 0.000000
v 4.000000 7.000000 0.000000
v 5.000000 7.000000 0.000000
v 6.000000 7.000000 0.000000
v 7.000000 7.000000 0.000000
v 8.000000 7.000000 0.000000
v 9.000000 7.000000 0.000000
v 10.000000 7.000000 0.000000
v 11.000000 7.000000 0.000000
v 12.000000 7.000000 0.000000
v 13.000000 7.000000 0.000000
v 14.000000 7.000000 0.000000
v 15.000000 7.000000 0.000000
v 16.000000 7.000000 0.000000
v 17.000000 7.000000 0.000000
v 18.000000 7.000000 0.000000
v 19.000000 7.000000 0.000000
v 20.000000 7.000000 0.000000
v 21.000000 7.000000 0.000000
v 22.000000 7.000000 0.000000
v 23.000000 7.000000 0.000000
v 24.000000 7.000000 0.000000
v 25.000000 7.000000 0.000000
v 26.000000 7.000000 0.000000
v 27.000000 7.000000 0.000000
v 28.000000 7.000000 0.000000
v 29.000000 7.000000 0.000000
v 30.000000 7.000000 0.000000
v 31.000000 7.000000 0.000000
v 32.000000 7.000000 0.000000
v 33.000000 7.000000 0.000000
v 34.000000 7.000000 0.000000
v 35.000000 7.000000 0.000000
v 36.000000 7.000000 0.000000
v 37.000000 7.000000 0.000000
v 38.000000 7.000000 0.000000
v 39.000000 7.000000 0.000000
v 40.000000 7.000000 0.000000
v 41.000000 7.000000 0.000000
v 42.000000 7.000000 0.000000
v 43.000000 7.000000 0.000000
v 44.000000 7.000000 0.000000
v 45.000000 7.000000 0.000000
v 46.000000 7.000000 0.000000
v 47.000000 7.000000 0.000000
v 48.000000 7.000000 0.000000
v 49.000000 7.000000 0.000000
v 0.000000 8.000000 0.000000
v 1.000000 8.000000 0.000000
v 2.000000 8.000000 0.000000
v 3.000000 8.000000 0.000000
v 4.000000 8.000000 0.000000
v 5.000000 8.000000 0.000000
v 6.000000 8.000000 0.000000
v 7.000000 8.000000 0.000000
v 8.000000 8.000000 0.000000
v 9.000000 8.000000 0.000000
v 10.000000 8.000000 0.000000
v 11.000000 8.000000 0.000000
v 12.000000 8.000000 0.000000
v 13.000000 8.000000 0.000000
v 14.000000 8.000000 0.000000
v 15.000000 8.000000 0.000000
v 16.000000 8.000000 0.000000
v 17.000000 8.000000 0.000000
v 18.000000 8.000000 0.000000
v 19.000000 8.000000 0.000000
v 20.000000 8.000000 0.000000
v 21.000000 8.000000 0.000000
v 22.000000 8.000000 0.000000
v 23.000000 8.000000 0.000000
v 24.000000 8.000000 0.000000
v 25.000000 8.000000 0.000000
v 26.000000 8.000000 0.000000
v 27.000000 8.000000 0.000000
v 28.000000 8.000000 0.000000
v 29.000000 8.000000 0.000000
v 30.000000 8.000000 0.000000
v 31.000000 8.000000 0.000000
v 32.000000 8.000000 0.000000
v 33.000000 8.000000 0.000000
v 34.000000 8.000000 0.000000
v 35.000000 8.000000 0.000000
v 36.000000 8.000000 0.000000
v 37.000000 8.000000 0.000000
v 38.000000 8.000000 0.000000
v 39.000000 8.000000 0.000000
v 40.000000 8.000000 0.000000
v 41.000000 8.000000 0.000000
v 42.000000 8.000000 0.000000
v 43.000000 8.000000 0.000000
v 44.000000 8.000000 0.000000
v 45.000000 8.000000 0.000000
v 46.000000 8.000000 0.000000
v 47.000000 8.000000 0.000000
v 48.000000 8.000000 0.000000
v 49.000000 8.000000 0.000000
v 0.000000 9.000000 0.000000
v 1.000000 9.000000 0.000000
v 2.000000 9.000000 0.000000
v 3.000000 9.000000 0.000000
v 4.000000 9.000000 0.000000
v 5.000000 9.000000 0.000000
v 6.000000 9.000000 0.000000
v 7.000000 9.000000 0.000000
v 8.000000 9.000000 0.000000
v 9.000000 9.000000 0.000000
v 10.000000 9.000000 0.000000
v 11.000000 9.000000 0.000000
v 12.000000 9.000000 0.000000
v 13.000000 9.000000 0.000000
v 14.000000 9.000000 0.000000
v 15.000000 9.000000 0.000000
v 16.000000 9.000000 0.000000
v 17.000000 9.000000 0.000000
v 18.000000 9.000000 0.000000
v 19.000000 9.000000 0.000000
v 20.000000 9.000000 0.000000
v 21.000000 9.000000 0.000000
v 22.000000 9.000000 0.000000
v 23.000000 9.000000 0.000000
v 24.000000 9.000000 0.000000
v 25.000000 9.000000 0.000000
v 26.000000 9.000000 0.000000
v 27.000000 9.000000 0.000000
v 28.000000 9.000000 0.000000
v 29.000000 9.000000 0.000000
v 30.000000 9.000000 0.000000
v 31.000000 9.000000 0.000000
v 32.000000 9.000000 0.000000
v 33.000000 9.000000 0.000000
v 34.000000 9.000000 0.000000
v 35.000000 9.000000 0.000000
v 36.000000 9.000000 0.000000
v 37.000000 9.000000 0.000000
v 38.000000 9.000000 0.000000
v 39.000000 9.000000 0.000000
v 40.000000 9.000000 0.000000
v 41.000000 9.000000 0.000000
v 42.000000 9.000000 0.000000
v 43.000000 9.000000 0.000000
v 44.000000 9.000000 0.000000
v 45.000000 9.000000 0.000000
v 46.000000 9.000000 0.000000
v 47.000000 9.000000 0.000000
v 48.000000 9.000000 0.000000
v 49.000000 9.000000 0.000000
f 1 2
f 2 3
f 3 4
f 4 5
f 5 6
f 6 7
f 7 8
f 8 9
f 9 10
f 10 11
f 11 12
f 12 13
f 13 14
f 14 15
f 15 16
f 16 17
f 17 18
f 18 19
f 19 20
f 20 21
f 21 22
f 22 23
f 23 24
f 24 25
f 25 26
f 26 27
f 27 28
f 28 29
f 29 30
f 30 31
f 31 32
f 32 33
f 33 34
f 34 35
f 35 36
f 36 37
f 37 38
f 38 39
f 39 40
f 40 41
f 41 42
f 42 43
f 43 44
f 44 45
f 45 46
f 46 47
f 47 48
f 48 49
f 49 50
f 51 52
f 52 53
f 53 54
f 54 55
f 55 56
f 56 57
f 57 58
f 58 59
f 59 60
f 60 61
f 61 62
f 62 63
f 63 64
f 64 65
f 65 66
f 66 67
f 67 68
f 68 69
f 69 70
f 70 71
f 71 72
f 72 73
f 73 74
f 74 75
f 75 76
f 76 77
f 77 78
f 78 79
f 79 80
f 80 81
f 81 82
f 82 83
f 83 84
f 84 85
f 85 86
f 86 87
f 87 88
f 88 89
f 89 90
f 90 91
f 91 92
f 92 93
f 93 94
f 94 95
f 95 96
f 96 97
f 97 98
f 98 99
f 99 100
f 101 102
f 102 103
f 103 104
f 104 105
f 105 106
f 106 107
f 107 108
f 108 109
f 109 110
f 110 111
f 111 112
f 112 113
f 113 114
f 114 115
f 115 116
f 116 117
f 117 118
f 118 119
f 119 120
f 120 121
f 121 122
f 122 123
f 123 124
f 124 125
f 125 126
f 126 127
f 127 128
f 128 129
f 129 130
f 130 131
f 131 132
f 132 133
f 133 134
f 134 135
f 135 136
f 136 137
f 137 138
f 138 139
f 139 140
f 140 141
f 141 142
f 142 143
f 143 144
f 144 145
f 145 146
f 146 147
f 147 148
f 148 149
f 149 150
f 151 152
f 152 153
f 153 154
f 154 155
f 155 156
f 156 157
f 157 158
f 158 159
f 159 160
f 160 161
f 161 162
f 162 163
f 163 164
f 164 165
f 165 166
f 166 167
f 167 168
f 168 169
f 169 170
f 170 171
f 171 172
f 172 173
f 173 174
f 174 175
f 175 176
f 176 177
f 177 178
f 178 179
f 179 180
f 180 181
f 181 182
f 182 183
f 183 184
f 184 185
f 185 186
f 186 187
f 187 188
f 188 189
f 189 190
f 190 191
f 191 192
f 192 193
f 193 194
f 194 195
f 195 196
f 196 197
f 197 198
f 198 199
f 199 200
f 201 202
f 202 203
f 203 204
f 204 205
f 205 206
f 206 207
f 207 208
f 208 209
f 209 210
f 210 211
f 211 212
f 212 213
f 213 214
f 214 215
f 215 216
f 216 217
f 217 218
f 218 219
f 219 220
f 220 221
f 221 222
f 222 223
f 223 224
f 224 225
f 225 226
f 226 227
f 227 228
f 228 229
f 229 230
f 230 231
f 231 232
f 232 233
f 233 234
f 234 235
f 235 236
f 236 237
f 237 238
f 238 239
f 239 240
f 240 241
f 241 242
f 242 243
f 243 244
f 244 245
f 245 246
f 246 247
f 247 248
f 248 249
f 249 250
f 251 252
f 252 253
f 253 254
f 254 255
f 255 256
f 256 257
f 257 258
f 258 259
f 259 260
f 260 261
f 261 262
f 262 263
f 263 264
f 264 265
f 265 266
f 266 267
f 267 268
f 268 269
f 269 270
f 270 271
f 271 272
f 272 273
f 273 274
f 274 275
f 275 276
f 276 277
f 277 278
f 278 279
f 279 280
f 280 281
f 281 282
f 282 283
f 283 284
f 284 285
f 285 286
f 286 287
f 287 288
f 288 289
f 289 290
f 290 291
f 291 292
f 292 293
f 293 294
f 294 295
f 295 296
f 296 297
f 297 298
f 298 299
f 299 300
f 301 302
f 302 303
f 303 304
f 304 305
f 305 306
f 306 307
f 307 308
f 308 309
f 309 310
f 310 311
f 311 312
f 312 313
f 313 314
f 314 315
f 315 316
f 316 317
f 317 318
f 318 319
f 319 320
f 320 321
f 321 322
f 322 323
f 323 324
f 324 325
f 325 326
f 326 327
f 327 328
f 328 329
f 329 330
f 330 331
f 331 332
f 332 333
f 333 334
f 334 335
f 335 336
f 336 337
f 337 338
f 338 339
f 339 340
f 340 341
f 341 342
f 342 343
f 343 344
f 344 345
f 345 346
f 346 347
f 347 348
f 348 349
f 349 350
f 351 352
f 352 353
f 353 354
f 354 355
f 355 356
f 356 357
f 357 358
f 358 359
f 359 360
f 360 361
f 361 362
f 362 363
f 363 364
f 364 365
f 365 366
f 366 367
f 367 368
f 368 369
f 369 370
f 370 371
f 371 372
f 372 373
f 373 374
f 374 375
f 375 376
f 376 377
f 377 378
f 378 379
f 379 380
f 380 381
f 381 382
f 382 383
f 383 384
f 384 385
f 385 386
f 386 387
f 387 388
f 388 389
f 389 390
f 390 391
f 391 392
f 392 393
f 393 394
f 394 395
f 395 396
f 396 397
f 397 398
f 398 399
f 399 400
f 401 402
f 402 403
f 403 404
f 404 405
f 405 406
f 406 407
f 407 408
f 408 409
f 409 410
f 410 411
f 411 412
f 412 413
f 413 414
f 414 415
f 415 416
f 416 417
f 417 418
f 418 419
f 419 420
f 420 421
f 421 422
f 422 423
f 423 424
f 424 425
f 425 426
f 426 427
f 427 428
f 428 429
f 429 430
f 430 431
f 431 432
f 432 433
f 433 434
f 434 435
f 435 436
f 436 437
f 437 438
f 438 439
f 439 440
f 440 441
f 441 442
f 442 443
f 443 444
f 444 445
f 445 446
f 446 447
f 447 448
f 448 449
f 449 450
f 451 452
f 452 453
f 453 454
f 454 455
f 455 456
f 456 457
f 457 458
f 458 459
f 459 460
f 460 461
f 461 462
f 462 463
f 463 464
f 464 465
f 465 466
f 466 467
f 467 468
f 468 469
f 469 470
f 470 471
f 471 472
f 472 473
f 473 474
f 474 475
f 475 476
f 476 477
f 477 478
f 478 479
f 479 480
f 480 481
f 481 482
f 482 483
f 483 484
f 484 485
f 485 486
f 486 487
f 487 488
f 488 489
f 489 490
f 490 491
f 491 492
f 492 493
f 493 494
f 494 495
f 495 496
f 496 497
f 497 498
f 498 499
f 499 500
f 1 51
f 2 52
f 3 53
f 4 54
f 5 55
f 6 56
f 7 57
f 8 58
f 9 59
f 10 60
f 11 61
f 12 62
f 13 63
f 14 64
f 15 65
f 16 66
f 17 67
f 18 68
f 19 69
f 20 70
f 21 71
f 22 72
f 23 73
f 24 74
f 25 75
f 26 76
f 27 77
f 28 78
f 29 79
f 30 80
f 31 81
f 32 82
f 33 83
f 34 84
f 35 85
f 36 86
f 37 87
f 38 88
f 39 89
f 40 90
f 41 91
f 42 92
f 43 93
f 44 94
f 45 95
f 46 96
f 47 97
f 48 98
f 49 99
f 50 100
f 51 101
f 52 102
f 53 103
f 54 104
f 55 105
f 56 106
f 57 107
f 58 108
f 59 109
f 60 110
f 61 111
f 62 112
f 63 113
f 64 114
f 65 115
f 66 116
f 67 117
f 68 118
f 69 119
f 70 120
f 71 121
f 72 122
f 73 123
f 74 124
f 75 125
f 76 126
f 77 127
f 78 128
f 79 129
f 80 130
f 81 131
f 82 132
f 83 133
f 84 134
f 85 135
f 86 136
f 87 137
f 88 138
f 89 139
f 90 140
f 91 141
f 92 142
f 93 143
f 94 144
f 95 145
f 96 146
f 97 147
f 98 148
f 99 149
f 100 150
f 101 151
f 102 152
f 103 153
f 104 154
f 105 155
f 106 156
f 107 157
f 108 158
f 109 159
f 110 160
f 111 161
f 112 162
f 113 163
f 114 164
f 115 165
f 116 166
f 117 167
f 118 168
f 119 169
f 120 170
f 121 171
f 122 172
f 123 173
f 124 174
f 125 175
f 126 176
f 127 177
f 128 178
f 129 179
f 130 180
f 131 181
f 132 182
f 133 183
f 134 184
f 135 185
f 136 186
f 137 187
f 138 188
f 139 189
f 140 190
f 141 191
f 142 192
f 143 193
f 144 194
f 145 195
f 146 196
f 147 197
f 148 198
f 149 199
f 150 200
f 151 201
f 152 202
f 153 203
f 154 204
f 155 205
f 156 206
f 157 207
f 158 208
f 159 209
f 160 210
f 161 211
f 162 212
f 163 213
f 164 214
f 165 215
f 166 216
f 167 217
f 168 218
f 169 219
f 170 220
f 171 221
f 172 222
f 173 223
f 174 224
f 175 225
f 176 226
f 177 227
f 178 228
f 179 229
f 180 230
f 181 231
f 182 232
f 183 233
f 184 234
f 185 235
f 186 236
f 187 237
f 188 238
f 189 239
f 190 240
f 191 241
f 192 242
f 193 243
f 194 244
f 195 245
f 196 246
f 197 247
f 198 248
f 199 249
f 200 250
f 201 251
f 202 252
f 203 253
f 204 254
f 205 255
f 206 256
f 207 257
f 208 258
f 209 259
f 210 260
f 211 261
f 212 262
f 213 263
f 214 264
f 215 265
f 216 266
f 217 267
f 218 268
f 219 269
f 220 270
f 221 271
f 222 272
f 223 273
f 224 274
f 225 275
f 226 276
f 227 277
f 228 278
f 229 279
f 230 280
f 231 281
f 232 282
f 233 283
f 234 284
f 235 285
f 236 286
f 237 287
f 238 288
f 239 289
f 240 290
f 241 291
f 242 292
f 243 293
f 244 294
f 245 295
f 246 296
f 247 297
f 248 298
f 249 299
f 250 300
f 251 301
f 252 302
f 253 303
f 254 304
f 255 305
f 256 306
f 257 307
f 258 308
f 259 309
f 260 310
f 261 311
f 262 312
f 263 313
f 264 314
f 265 315
f 266 316
f 267 317
f 268 318
f 269 319
f 270 320
f 271 321
f 272 322
f 273 323
f 274 324
f 275 325
f 276 326
f 277 327
f 278 328
f 279 329
f 280 330
f 281 331
f 282 332
f 283 333
f 284 334
f 285 335
f 286 336
f 287 337
f 288 338
f 289 339
f 290 340
f 291 341
f 292 342
f 293 343
f 294 344
f 295 345
f 296 346
f 297 347
f 298 348
f 299 349
f 300 350
f 301 351
f 302 352
f 303 353
f 304 354
f 305 355
f 306 356
f 307 357
f 308 358
f 309 359
f 310 360
f 311 361
f 312 362
f 313 363
f 314 364
f 315 365
f 316 366
f 317 367
f 318 368
f 319 369
f 320 370
f 321 371
f 322 372
f 323 373
f 324 374
f 325 375
f 326 376
f 327 377
f 328 378
f 329 379
f 330 380
f 331 381
f 332 382
f 333 383
f 334 384
f 335 385
f 336 386
f 337 387
f 338 388
f 339 389
f 340 390
f 341 391
f 342 392
f 343 393
f 344 394
f 345 395
f 346 396
f 347 397
f 348 398
f 349 399
f 350 400
f 351 401
f 352 402
f 353 403
f 354 404
f 355 405
f 356 406
f 357 407
f 358 408
f 359 409
f 360 410
f 361 411
f 362 412
f 363 413
f 364 414
f 365 415
f 366 416
f 367 417
f 368 418
f 369 419
f 370 420
f 371 421
f 372 422
f 373 423
f 374 424
f 375 425
f 376 426
f 377 427
f 378 428
f 379 429
f 380 430
f 381 431
f 382 432
f 383 433
f 384 434
f 385 435
f 386 436
f 387 437
f 388 438
f 389 439
f 390 440
f 391 441
f 392 442
f 393 443
f 394 444
f 395 445
f 396 446
f 397 447
f 398 448
f 399 449
f 400 450
f 401 451
f 402 452
f 403 453
f 404 454
f 405 455
f 406 456
f 407 457
f 408 458
f 409 459
f 410 460
f 411 461
f 412 462
f 413 463
f 414 464
f 415 465
f 416 466
f 417 467
f 418 468
f 419 469
f 420 470
f 421 471
f 422 472
f 423 473
f 424 474
f 425 475
f 426 476
f 427 477
f 428 478
f 429 479
f 430 480
f 431 481
f 432 482
f 433 483
f 434 484
f 435 485
f 436 486
f 437 487
f 438 488
f 439 489
f 440 490
f 441 491
f 442 492
f 443 493
f 444 494
f 445 495
f 446 496
f 447 497
f 448 498
f 449 499
f 450 500